<?xml version="1.0" standalone="no"?><!DOCTYPE svg PUBLIC "-//W3C//DTD SVG 1.1//EN" "http://www.w3.org/Graphics/SVG/1.1/DTD/svg11.dtd"><svg t="1713215247062" class="icon" viewBox="0 0 1092 1024" version="1.1" xmlns="http://www.w3.org/2000/svg" p-id="27408" xmlns:xlink="http://www.w3.org/1999/xlink" width="213.28125" height="200"><path d="M1044.48 778.24l-177.493333 184.32c-27.306667 27.306667-68.266667 27.306667-95.573334 0l13.653334-177.493333H68.266667c-40.96 0-68.266667-27.306667-68.266667-68.266667v-6.826667c0-40.96 27.306667-68.266667 68.266667-68.266666h955.733333c40.96 0 68.266667 27.306667 68.266667 68.266666v6.826667c0 27.306667-20.48 54.613333-47.786667 61.44z m-20.48-409.6H68.266667c-40.96 0-68.266667-27.306667-68.266667-68.266667 0-27.306667 20.48-54.613333 47.786667-61.44L225.28 61.44c27.306667-27.306667 68.266667-27.306667 95.573333 0l-6.826666 170.666667H1024c40.96 0 68.266667 27.306667 68.266667 68.266666s-27.306667 68.266667-68.266667 68.266667z" fill="#ffffff" p-id="27409"></path></svg>