<?xml version="1.0" standalone="no"?><!DOCTYPE svg PUBLIC "-//W3C//DTD SVG 1.1//EN" "http://www.w3.org/Graphics/SVG/1.1/DTD/svg11.dtd"><svg t="1713215926013" class="icon" viewBox="0 0 1024 1024" version="1.1" xmlns="http://www.w3.org/2000/svg" p-id="32278" xmlns:xlink="http://www.w3.org/1999/xlink" width="200" height="200"><path d="M874.213089 699.344191s-97.841477 173.446254-97.841477 226.814332c0 53.368078 44.473398 97.841477 97.841477 97.841477 53.368078 0 97.841477-44.473398 97.841476-97.841477 0-53.368078-97.841477-226.814332-97.841476-226.814332zM807.502991 574.818675c17.789359-17.789359 17.789359-48.920738 0-71.157437L420.584424 125.637351 304.953588 10.006515c-13.34202-13.34202-35.578719-13.34202-44.473398 0-13.34202 13.34202-13.34202 35.578719 0 44.473398l115.630836 115.630836-337.997829 333.550489c-17.789359 17.789359-17.789359 48.920738 0 71.157437l351.339848 346.892508c17.789359 17.789359 48.920738 17.789359 71.157438 0l346.892508-346.892508c0 4.44734 0 4.44734 0 0zM131.507334 503.661238l289.07709-284.62975 289.07709 284.62975h-578.15418z" p-id="32279" fill="#ffffff"></path></svg>