<?xml version="1.0" standalone="no"?><!DOCTYPE svg PUBLIC "-//W3C//DTD SVG 1.1//EN" "http://www.w3.org/Graphics/SVG/1.1/DTD/svg11.dtd"><svg t="1713510059184" class="icon" viewBox="0 0 1024 1024" version="1.1" xmlns="http://www.w3.org/2000/svg" p-id="18721" xmlns:xlink="http://www.w3.org/1999/xlink" width="200" height="200"><path d="M860.414581 207.449017 509.333781 207.449017c0-52.808332-43.003528-95.81186-95.81186-95.81186l-63.817235 0c-52.808332 0-95.81186 43.003528-95.81186 95.81186L158.424996 207.449017c-52.808332 0-95.81186 43.003528-95.81186 95.81186l0 510.53788c0 52.808332 43.003528 95.81186 95.81186 95.81186l701.989585 0c52.808332 0 95.81186-43.003528 95.81186-95.81186L956.22644 303.260877C956.054426 250.452545 913.050899 207.449017 860.414581 207.449017zM509.333781 749.981522c-105.616664 0-191.451705-85.835041-191.451705-191.451705s85.835041-191.451705 191.451705-191.451705 191.451705 85.835041 191.451705 191.451705S614.950445 749.981522 509.333781 749.981522zM812.422644 430.895347c-26.490173 0-47.819923-21.501764-47.819923-47.819923s21.501764-47.819923 47.819923-47.819923c26.490173 0 47.819923 21.501764 47.819923 47.819923S838.912817 430.895347 812.422644 430.895347z" fill="#ffffff" p-id="18722"></path></svg>