<?xml version="1.0" standalone="no"?><!DOCTYPE svg PUBLIC "-//W3C//DTD SVG 1.1//EN" "http://www.w3.org/Graphics/SVG/1.1/DTD/svg11.dtd"><svg t="1713214286385" class="icon" viewBox="0 0 1024 1024" version="1.1" xmlns="http://www.w3.org/2000/svg" p-id="3063" xmlns:xlink="http://www.w3.org/1999/xlink" width="200" height="200"><path d="M606.669077 984.206326h-220.045253c-29.788087 0-53.93266-24.148888-53.93266-53.93266v-69.215018a385.618519 385.618519 0 0 1-40.039607-21.663671l-57.906418 37.968592a53.872255 53.872255 0 0 1-40.553046 7.69727 53.889514 53.889514 0 0 1-34.119958-23.23419l-120.653832-184.018236a53.915402 53.915402 0 0 1 15.532606-74.668689l57.884845-37.94702a389.333401 389.333401 0 0 1-3.999646-55.598101c0-7.675696 0.232989-15.398853 0.703282-23.139268l-60.883501-32.959327a53.936975 53.936975 0 0 1-21.754278-73.1068l104.763113-193.506069c14.177818-26.194014 46.90847-35.93641 73.102485-21.754278l60.853299 32.946383a383.750292 383.750292 0 0 1 67.074971-39.966258V88.919855c0-29.788087 24.148888-53.93266 53.93266-53.93266h220.045252c29.788087 0 53.93266 24.144573 53.93266 53.93266v69.219333a385.644407 385.644407 0 0 1 40.043922 21.659357l57.910733-37.968593a53.915402 53.915402 0 0 1 74.664374 15.532606l120.649518 184.018236a53.945604 53.945604 0 0 1 7.701584 40.553046 53.949918 53.949918 0 0 1-23.238505 34.119958l-57.876216 37.947019c2.662116 18.406138 4.003961 36.997805 4.003961 55.593786 0 7.680011-0.237304 15.403168-0.698967 23.139269l60.874872 32.963642c26.1897 14.177818 35.932095 46.90847 21.749963 73.102484l-104.763114 193.510384c-14.182132 26.194014-46.912785 35.93641-73.102484 21.749964l-60.853299-32.937755a384.315506 384.315506 0 0 1-67.079285 39.974888v69.176187c0.008629 29.783772-24.131629 53.93266-53.924031 53.93266z m-166.108278-107.86532h112.179932v-51.499218a53.941289 53.941289 0 0 1 36.169399-50.925375A278.076795 278.076795 0 0 0 685.160513 716.570894a53.919716 53.919716 0 0 1 62.0053-7.567831l45.303435 24.524259 53.410592-98.653621-45.294805-24.524259a53.941289 53.941289 0 0 1-27.574691-55.982102 283.25433 283.25433 0 0 0 3.607016-44.781366c0-22.824302-2.791554-45.639974-8.322888-67.817084a53.941289 53.941289 0 0 1 22.759583-58.135093l43.055521-28.226197-61.500491-93.812626-43.128869 28.273658a53.93266 53.93266 0 0 1-62.436762-2.342835 278.844796 278.844796 0 0 0-78.133324-42.265947 53.928345 53.928345 0 0 1-36.160769-50.916746V142.852515h-112.179933v51.503533a53.93266 53.93266 0 0 1-36.16077 50.921061A278.076795 278.076795 0 0 0 308.16259 302.626942a53.941289 53.941289 0 0 1-62.0053 7.567831l-45.303435-24.528574-53.419221 98.649307 45.29912 24.524259a53.93266 53.93266 0 0 1 27.57469 55.969157 283.651275 283.651275 0 0 0-3.607016 44.789996c0 22.819987 2.795869 45.639974 8.318573 67.838657a53.945604 53.945604 0 0 1-22.768211 58.122149l-43.055521 28.221882 61.50912 93.816941 43.124555-28.273657a53.919716 53.919716 0 0 1 62.441076 2.342834 278.603178 278.603178 0 0 0 78.129009 42.261633 53.93266 53.93266 0 0 1 36.156455 50.925375l0.004315 51.486274z" p-id="3064" fill="#ffffff"></path><path d="M501.215625 697.530508c-103.490303 0-187.685657-84.195354-187.685657-187.685657s84.195354-187.685657 187.685657-187.685657 187.685657 84.195354 187.685657 187.685657c0 29.788087-24.153202 53.93266-53.93266 53.93266s-53.93266-24.144573-53.93266-53.93266c0-44.013365-35.806972-79.820337-79.820337-79.820337s-79.820337 35.806972-79.820337 79.820337 35.806972 79.820337 79.820337 79.820337c29.779458 0 53.93266 24.153202 53.93266 53.93266 0 29.783772-24.153202 53.93266-53.93266 53.93266z" p-id="3065" fill="#ffffff"></path></svg>