<?xml version="1.0" standalone="no"?><!DOCTYPE svg PUBLIC "-//W3C//DTD SVG 1.1//EN" "http://www.w3.org/Graphics/SVG/1.1/DTD/svg11.dtd"><svg t="1713405086797" class="icon" viewBox="0 0 1024 1024" version="1.1" xmlns="http://www.w3.org/2000/svg" p-id="2384" xmlns:xlink="http://www.w3.org/1999/xlink" width="200" height="200"><path d="M592 634.5l142.6 142.6c-4.9 16.9-2.7 35.4 6.6 50.8l-35.5 35.5c-5.9 5.9-5.9 15.6 0 21.5s15.6 5.9 21.5 0l35.5-35.5c24.4 14.7 56.8 11.6 77.8-9.4s24.1-53.4 9.4-77.8l35.5-35.5c5.9-5.9 5.9-15.6 0-21.5s-15.6-5.9-21.5 0l-35.5 35.5c-15.4-9.3-34-11.5-50.8-6.6L634.9 591.6c31.7-48.6 31.7-111.8 0-160.4l142.6-142.6c16.9 4.9 35.4 2.7 50.8-6.6l35.5 35.5c5.9 5.9 15.6 5.9 21.5 0s5.9-15.6 0-21.5l-35.5-35.5c14.7-24.4 11.6-56.8-9.4-77.8s-53.4-24.1-77.8-9.4l-35.5-35.5c-5.9-5.9-15.6-5.9-21.5 0s-5.9 15.6 0 21.5l35.5 35.5c-9.3 15.4-11.5 34-6.6 50.8L592 388.3c-48.6-31.7-111.8-31.7-160.4 0L289 245.6c4.9-16.9 2.7-35.4-6.6-50.8l35.5-35.5c5.9-5.9 5.9-15.6 0-21.5s-15.6-5.9-21.5 0l-35.5 35.5c-24.4-14.7-56.8-11.6-77.8 9.4s-24.1 53.4-9.4 77.8L138.2 296c-5.9 5.9-5.9 15.6 0 21.5s15.6 5.9 21.5 0l35.5-35.5c15.4 9.3 34 11.5 50.8 6.6l142.6 142.6c-31.8 48.6-31.8 111.9 0 160.5L246 734.3c-16.9-4.9-35.4-2.7-50.8 6.6l-35.5-35.5c-5.9-5.9-15.6-5.9-21.5 0s-5.9 15.6 0 21.5l35.5 35.5c-14.7 24.4-11.6 56.8 9.4 77.8s53.4 24.1 77.8 9.4l35.5 35.5c5.9 5.9 15.6 5.9 21.5 0s5.9-15.6 0-21.5L282.3 828c9.3-15.4 11.5-34 6.6-50.8l142.6-142.6c48.6 31.7 111.9 31.7 160.5-0.1z" fill="#fff" p-id="2385"></path><path d="M617.1 265.4c8.2-0.4 14.5-7.3 14.1-15.5-2-42 13.9-83.1 43.6-112.8 58.2-58.2 153-58.2 211.2 0 28.2 28.2 43.7 65.7 43.7 105.6 0 39.9-15.5 77.4-43.7 105.6-29.2 29.2-68.1 44.8-109.4 43.7-8.4-0.2-15 6.2-15.2 14.4-0.2 8.2 6.2 15 14.4 15.2 1.6 0 3.1 0.1 4.7 0.1 47.8 0 92.5-18.5 126.4-52.4 33.8-33.8 52.4-78.7 52.4-126.5s-18.6-92.7-52.4-126.5c-69.8-69.8-183.3-69.8-253.1 0-35.6 35.6-54.6 84.8-52.2 135.1 0.4 8.1 7.3 14.5 15.5 14zM406.8 761.1c-8.2 0.2-14.6 7-14.4 15.2 1 41.3-14.5 80.2-43.7 109.4-58.2 58.2-153 58.2-211.2 0-58.2-58.2-58.2-153 0-211.2 29.7-29.7 70.8-45.5 112.8-43.6 8.1 0.5 15.1-5.9 15.5-14.1 0.4-8.2-5.9-15.1-14.1-15.5-50.2-2.4-99.5 16.6-135.1 52.2-69.8 69.8-69.8 183.3 0 253.1 34.9 34.9 80.7 52.3 126.5 52.3s91.7-17.4 126.5-52.3c35-35 53.6-81.6 52.4-131.1-0.2-8.1-7-14.6-15.2-14.4zM771.9 601.3c-8.2 0.4-14.6 7.3-14.1 15.5 0.4 8.2 7.3 14.5 15.5 14.1 42-2 83.1 13.9 112.8 43.6 58.2 58.2 58.2 153 0 211.2-28.2 28.2-65.7 43.7-105.6 43.7-39.9 0-77.4-15.5-105.6-43.7-29.2-29.2-44.8-68.1-43.7-109.4 0.2-8.4-6.2-15-14.4-15.2-8.2-0.2-15 6.2-15.2 14.4 0 1.6-0.1 3.1-0.1 4.7 0 47.8 18.5 92.5 52.4 126.4 33.8 33.8 78.7 52.4 126.5 52.4s92.7-18.6 126.5-52.4c69.8-69.8 69.8-183.3 0-253.1-35.5-35.6-84.8-54.6-135-52.2zM247.7 421.6c8.2-0.2 14.6-7 14.4-15.2-0.2-8.2-7-14.6-15.2-14.4-41.3 1-80.2-14.5-109.4-43.7-58.2-58.2-58.2-153 0-211.2 58.2-58.2 153-58.2 211.2 0 29.7 29.7 45.5 70.8 43.6 112.8-0.5 8.1 5.9 15.1 14.1 15.5 8.2 0.4 15.1-5.9 15.5-14.1 2.4-50.2-16.6-99.5-52.2-135.1-69.8-69.8-183.3-69.8-253.1 0-34.9 34.9-52.3 80.7-52.3 126.5s17.4 91.7 52.3 126.5c35 35.1 81.5 53.7 131.1 52.4z" fill="#fff" p-id="2386"></path></svg>
