<?xml version="1.0" standalone="no"?><!DOCTYPE svg PUBLIC "-//W3C//DTD SVG 1.1//EN" "http://www.w3.org/Graphics/SVG/1.1/DTD/svg11.dtd"><svg t="1713499419768" class="icon" viewBox="0 0 1024 1024" version="1.1" xmlns="http://www.w3.org/2000/svg" p-id="5441" xmlns:xlink="http://www.w3.org/1999/xlink" width="200" height="200"><path d="M512 0C229.376 0 0 229.376 0 512s229.376 512 512 512 512-229.376 512-512S794.624 0 512 0z m0 983.04C251.904 983.04 40.96 772.096 40.96 512S251.904 40.96 512 40.96s471.04 210.944 471.04 471.04-210.944 471.04-471.04 471.04z" p-id="5442" fill="#ffffff"></path><path d="M677.888 346.112c-8.192-8.192-20.48-8.192-28.672 0L512 483.328l-137.216-137.216c-8.192-8.192-20.48-8.192-28.672 0s-8.192 20.48 0 28.672l137.216 137.216-137.216 137.216c-8.192 8.192-8.192 20.48 0 28.672 4.096 4.096 10.24 6.144 14.336 6.144s10.24-2.048 14.336-6.144l137.216-137.216 137.216 137.216c4.096 4.096 10.24 6.144 14.336 6.144s10.24-2.048 14.336-6.144c8.192-8.192 8.192-20.48 0-28.672L540.672 512l137.216-137.216c8.192-8.192 8.192-20.48 0-28.672z" p-id="5443" fill="#ffffff"></path></svg>